P3
14 17
255
229 230 232 229 230 232 229 230 232 229 230 232 229 230 232 229 230 232 229 230 232 229 230 232 229 230 232 229 230 232 229 230 232 229 230 232 229 230 232 229 230 232 
229 230 232 229 230 232 229 230 232 229 230 232 255 0 0 255 0 0 255 0 0 255 0 0 255 0 0 229 230 232 229 230 232 229 230 232 229 230 232 229 230 232 
229 230 232 229 230 232 229 230 232 255 0 0 255 0 0 255 0 0 255 0 0 255 0 0 255 0 0 255 0 0 255 0 0 255 0 0 229 230 232 229 230 232 
229 230 232 229 230 232 229 230 232 100 50 0 100 50 0 100 50 0 255 200 150 255 200 150 100 50 0 255 200 150 229 230 232 229 230 232 229 230 232 229 230 232 
229 230 232 229 230 232 100 50 0 255 200 150 100 50 0 255 200 150 255 200 150 255 200 150 100 50 0 255 200 150 255 200 150 255 200 150 229 230 232 229 230 232 
229 230 232 229 230 232 100 50 0 255 200 150 100 50 0 100 50 0 255 200 150 255 200 150 255 200 150 100 50 0 255 200 150 255 200 150 100 50 0 229 230 232 
229 230 232 229 230 232 100 50 0 100 50 0 255 200 150 255 200 150 255 200 150 255 200 150 100 50 0 100 50 0 100 50 0 100 50 0 229 230 232 229 230 232 
229 230 232 229 230 232 229 230 232 229 230 232 255 200 150 255 200 150 255 200 150 255 200 150 255 200 150 255 200 150 255 200 150 229 230 232 229 230 232 229 230 232 
229 230 232 229 230 232 229 230 232 255 0 0 255 0 0 0 0 255 255 0 0 255 0 0 255 0 0 255 0 0 229 230 232 229 230 232 229 230 232 229 230 232 
229 230 232 229 230 232 255 0 0 255 0 0 255 0 0 0 0 255 255 0 0 255 0 0 0 0 255 255 0 0 255 0 0 255 0 0 229 230 232 229 230 232 
229 230 232 255 0 0 255 0 0 255 0 0 255 0 0 0 0 255 0 0 255 0 0 255 0 0 255 255 0 0 255 0 0 255 0 0 255 0 0 229 230 232 
229 230 232 255 255 255 255 255 255 255 0 0 0 0 255 255 255 0 0 0 255 0 0 255 255 255 0 0 0 255 255 0 0 255 255 255 255 255 255 229 230 232 
229 230 232 255 255 255 255 255 255 255 255 255 0 0 255 0 0 255 0 0 255 0 0 255 0 0 255 0 0 255 255 255 255 255 255 255 255 255 255 229 230 232 
229 230 232 255 255 255 255 255 255 0 0 255 0 0 255 0 0 255 0 0 255 0 0 255 0 0 255 0 0 255 0 0 255 255 255 255 255 255 255 229 230 232 
229 230 232 229 230 232 229 230 232 0 0 255 0 0 255 0 0 255 229 230 232 229 230 232 0 0 255 0 0 255 0 0 255 229 230 232 229 230 232 229 230 232 
229 230 232 229 230 232 100 50 0 100 50 0 100 50 0 229 230 232 229 230 232 229 230 232 229 230 232 100 50 0 100 50 0 100 50 0 229 230 232 229 230 232 
229 230 232 100 50 0 100 50 0 100 50 0 100 50 0 229 230 232 229 230 232 229 230 232 229 230 232 100 50 0 100 50 0 100 50 0 100 50 0 229 230 232 
